<svg width="23" height="31" viewBox="0 0 23 31" fill="none" xmlns="http://www.w3.org/2000/svg">
<path d="M3.9001 16.45C3.9001 16.1981 4.00019 15.9565 4.17835 15.7783C4.35651 15.6001 4.59814 15.5 4.8501 15.5C5.10205 15.5 5.34369 15.6001 5.52185 15.7783C5.70001 15.9565 5.8001 16.1981 5.8001 16.45C5.8001 16.702 5.70001 16.9436 5.52185 17.1218C5.34369 17.3 5.10205 17.4 4.8501 17.4C4.59814 17.4 4.35651 17.3 4.17835 17.1218C4.00019 16.9436 3.9001 16.702 3.9001 16.45ZM4.8501 19.3C4.59814 19.3 4.35651 19.4001 4.17835 19.5783C4.00019 19.7565 3.9001 19.9981 3.9001 20.25C3.9001 20.502 4.00019 20.7436 4.17835 20.9218C4.35651 21.1 4.59814 21.2 4.8501 21.2C5.10205 21.2 5.34369 21.1 5.52185 20.9218C5.70001 20.7436 5.8001 20.502 5.8001 20.25C5.8001 19.9981 5.70001 19.7565 5.52185 19.5783C5.34369 19.4001 5.10205 19.3 4.8501 19.3ZM3.9001 24.05C3.9001 23.7981 4.00019 23.5565 4.17835 23.3783C4.35651 23.2001 4.59814 23.1 4.8501 23.1C5.10205 23.1 5.34369 23.2001 5.52185 23.3783C5.70001 23.5565 5.8001 23.7981 5.8001 24.05C5.8001 24.302 5.70001 24.5436 5.52185 24.7218C5.34369 24.9 5.10205 25 4.8501 25C4.59814 25 4.35651 24.9 4.17835 24.7218C4.00019 24.5436 3.9001 24.302 3.9001 24.05ZM8.6501 15.5C8.39814 15.5 8.1565 15.6001 7.97835 15.7783C7.80019 15.9565 7.7001 16.1981 7.7001 16.45C7.7001 16.702 7.80019 16.9436 7.97835 17.1218C8.1565 17.3 8.39814 17.4 8.6501 17.4H18.1501C18.4021 17.4 18.6437 17.3 18.8218 17.1218C19 16.9436 19.1001 16.702 19.1001 16.45C19.1001 16.1981 19 15.9565 18.8218 15.7783C18.6437 15.6001 18.4021 15.5 18.1501 15.5H8.6501ZM7.7001 20.25C7.7001 19.9981 7.80019 19.7565 7.97835 19.5783C8.1565 19.4001 8.39814 19.3 8.6501 19.3H18.1501C18.4021 19.3 18.6437 19.4001 18.8218 19.5783C19 19.7565 19.1001 19.9981 19.1001 20.25C19.1001 20.502 19 20.7436 18.8218 20.9218C18.6437 21.1 18.4021 21.2 18.1501 21.2H8.6501C8.39814 21.2 8.1565 21.1 7.97835 20.9218C7.80019 20.7436 7.7001 20.502 7.7001 20.25ZM8.6501 23.1C8.39814 23.1 8.1565 23.2001 7.97835 23.3783C7.80019 23.5565 7.7001 23.7981 7.7001 24.05C7.7001 24.302 7.80019 24.5436 7.97835 24.7218C8.1565 24.9 8.39814 25 8.6501 25H18.1501C18.4021 25 18.6437 24.9 18.8218 24.7218C19 24.5436 19.1001 24.302 19.1001 24.05C19.1001 23.7981 19 23.5565 18.8218 23.3783C18.6437 23.2001 18.4021 23.1 18.1501 23.1H8.6501ZM3.9001 0.300049C2.89227 0.300049 1.92573 0.700405 1.21309 1.41304C0.500453 2.12568 0.100098 3.09223 0.100098 4.10005V26.9C0.100098 27.9079 0.500453 28.8744 1.21309 29.5871C1.92573 30.2997 2.89227 30.7 3.9001 30.7H19.1001C20.1079 30.7 21.0745 30.2997 21.7871 29.5871C22.4997 28.8744 22.9001 27.9079 22.9001 26.9V10.5866C22.8994 9.83104 22.5987 9.10662 22.0641 8.57265L14.6275 1.13415C14.0932 0.600214 13.3688 0.30021 12.6135 0.300049H3.9001ZM2.0001 4.10005C2.0001 3.59614 2.20028 3.11286 2.5566 2.75655C2.91291 2.40023 3.39619 2.20005 3.9001 2.20005H11.5001V8.85005C11.5001 9.60592 11.8004 10.3308 12.3348 10.8653C12.8693 11.3998 13.5942 11.7 14.3501 11.7H21.0001V26.9C21.0001 27.404 20.7999 27.8872 20.4436 28.2436C20.0873 28.5999 19.604 28.8 19.1001 28.8H3.9001C3.39619 28.8 2.91291 28.5999 2.5566 28.2436C2.20028 27.8872 2.0001 27.404 2.0001 26.9V4.10005ZM20.6068 9.80005H14.3501C14.0981 9.80005 13.8565 9.69996 13.6783 9.5218C13.5002 9.34364 13.4001 9.102 13.4001 8.85005V2.59335L20.6068 9.80005Z" fill="#0D0D0D"/>
</svg>
