<svg width="48" height="48" viewBox="0 0 48 48" fill="none" xmlns="http://www.w3.org/2000/svg">
<path d="M24 0.5C17.7688 0.5 11.7873 2.97741 7.38477 7.38293C2.97764 11.7902 0.501221 17.7673 0.5 24C0.5 30.2301 2.97852 36.2116 7.38477 40.6171C11.7873 45.0226 17.7688 47.5 24 47.5C30.2312 47.5 36.2127 45.0226 40.6152 40.6171C45.0215 36.2116 47.5 30.2301 47.5 24C47.5 17.7699 45.0215 11.7884 40.6152 7.38293C36.2127 2.97741 30.2312 0.5 24 0.5Z" fill="#2AABEE"/>
<path d="M11.1374 23.7517C17.9891 20.7672 22.5569 18.7995 24.8408 17.8488C31.3694 15.1342 32.7244 14.6627 33.6093 14.6467C33.8039 14.6436 34.2372 14.6917 34.5199 14.9203C34.7549 15.1131 34.821 15.3738 34.854 15.5568C34.8834 15.7397 34.9238 16.1564 34.8908 16.4818C34.5383 20.1977 33.0071 29.2151 32.2287 33.3772C31.9019 35.1382 31.2519 35.7286 30.624 35.7863C29.2581 35.9119 28.2226 34.8845 26.9008 34.0183C24.8335 32.6622 23.6658 31.8185 21.6573 30.4955C19.3367 28.9665 20.8422 28.126 22.164 26.7527C22.5092 26.3933 28.5237 20.924 28.6376 20.4279C28.6522 20.3659 28.6669 20.1345 28.5274 20.0126C28.3915 19.8904 28.1896 19.9322 28.0427 19.9653C27.8334 20.0123 24.5324 22.1963 18.1287 26.517C17.1923 27.161 16.3441 27.475 15.5804 27.4585C14.7432 27.4405 13.1276 26.9841 11.9269 26.5941C10.4581 26.1157 9.28678 25.8627 9.38959 25.0501C9.44099 24.6271 10.0248 24.1942 11.1374 23.7517Z" fill="white"/>
</svg>
