<svg width="54" height="54" viewBox="0 0 54 54" fill="none" xmlns="http://www.w3.org/2000/svg">
<g clip-path="url(#clip0_569_23054)">
<path d="M1.63121 26.6828C1.62997 31.1358 2.80259 35.4839 5.03232 39.3163L1.41797 52.4106L14.923 48.897C18.6583 50.9147 22.8435 51.972 27.0965 51.9722H27.1076C41.1475 51.9722 52.5762 40.6362 52.5822 26.7027C52.5849 19.951 49.9374 13.6021 45.1272 8.82551C40.3179 4.04935 33.9217 1.41763 27.1066 1.41455C13.0651 1.41455 1.63721 12.75 1.63142 26.6828" fill="url(#paint0_linear_569_23054)"/>
<path d="M0.721523 26.6746C0.720074 31.2879 1.93473 35.7914 4.24395 39.7611L0.5 53.3248L14.4893 49.6852C18.3438 51.7705 22.6836 52.87 27.0996 52.8716H27.111C41.6545 52.8716 53.4938 41.1278 53.5 26.6956C53.5025 19.7012 50.7597 13.1241 45.7777 8.17637C40.7951 3.22929 34.1701 0.502876 27.111 0.5C12.565 0.5 0.72732 12.2422 0.721523 26.6746ZM9.05267 39.0774L8.53033 38.2547C6.33455 34.7904 5.17559 30.787 5.17725 26.6762C5.1818 14.6804 15.0208 4.92077 27.1193 4.92077C32.9782 4.92324 38.4844 7.1895 42.6259 11.3013C46.7671 15.4135 49.0459 20.8799 49.0445 26.6939C49.0391 38.6898 39.1999 48.4506 27.111 48.4506H27.1023C23.166 48.4486 19.3055 47.3997 15.9387 45.4175L15.1375 44.946L6.83598 47.1057L9.05267 39.0774Z" fill="url(#paint1_linear_569_23054)"/>
<path d="M20.5155 15.732C20.0216 14.6426 19.5017 14.6206 19.032 14.6015C18.6473 14.5851 18.2076 14.5863 17.7682 14.5863C17.3285 14.5863 16.614 14.7505 16.0101 15.4047C15.4056 16.0596 13.7021 17.6422 13.7021 20.8611C13.7021 24.0801 16.065 27.1909 16.3944 27.6278C16.7242 28.0639 20.9559 34.8808 27.6579 37.5033C33.2279 39.6826 34.3614 39.2492 35.5702 39.1399C36.7793 39.031 39.4715 37.5577 40.0208 36.03C40.5705 34.5024 40.5705 33.193 40.4057 32.9194C40.2409 32.6468 39.8011 32.4831 39.1417 32.156C38.4821 31.8288 35.2404 30.246 34.6361 30.0276C34.0316 29.8094 33.5921 29.7006 33.1523 30.3557C32.7126 31.0098 31.4499 32.4831 31.065 32.9194C30.6806 33.3567 30.2957 33.4112 29.6365 33.0839C28.9767 32.7557 26.8532 32.0656 24.3338 29.837C22.3737 28.1028 21.0503 25.9612 20.6656 25.3061C20.281 24.652 20.6244 24.2974 20.9551 23.9714C21.2513 23.6783 21.6147 23.2075 21.9447 22.8256C22.2734 22.4435 22.3832 22.1709 22.603 21.7345C22.8231 21.2978 22.713 20.9157 22.5484 20.5885C22.3832 20.2612 21.1019 17.0256 20.5155 15.732Z" fill="white"/>
</g>
<defs>
<linearGradient id="paint0_linear_569_23054" x1="2559.63" y1="5101.02" x2="2559.63" y2="1.41455" gradientUnits="userSpaceOnUse">
<stop stop-color="#1FAF38"/>
<stop offset="1" stop-color="#60D669"/>
</linearGradient>
<linearGradient id="paint1_linear_569_23054" x1="2650.5" y1="5282.98" x2="2650.5" y2="0.5" gradientUnits="userSpaceOnUse">
<stop stop-color="#E9E9E9"/>
<stop offset="1" stop-color="white"/>
</linearGradient>
<clipPath id="clip0_569_23054">
<rect width="53" height="53" fill="white" transform="translate(0.5 0.5)"/>
</clipPath>
</defs>
</svg>
