<svg width="15" height="13" viewBox="0 0 15 13" fill="red" xmlns="http://www.w3.org/2000/svg">
<path d="M1.11119 5.35742C5.04728 3.64292 7.67135 2.51251 8.98338 1.96639C12.7338 0.406931 13.5122 0.136087 14.0206 0.126911C14.1324 0.125118 14.3813 0.152751 14.5437 0.284059C14.6787 0.394801 14.7167 0.544567 14.7356 0.64972C14.7525 0.754767 14.7757 0.994181 14.7567 1.18107C14.5542 3.31576 13.6746 8.49596 13.2274 10.8869C13.0397 11.8986 12.6663 12.2378 12.3056 12.2709C11.521 12.343 10.9261 11.7528 10.1667 11.2552C8.97916 10.4762 8.30838 9.99151 7.15455 9.2315C5.82142 8.35316 6.68627 7.87032 7.44564 7.08141C7.64392 6.87491 11.0991 3.73299 11.1645 3.44802C11.1729 3.41237 11.1813 3.27948 11.1012 3.20945C11.0231 3.1392 10.9071 3.16325 10.8228 3.18224C10.7025 3.20924 8.80619 4.46389 5.12744 6.94599C4.58955 7.31598 4.10228 7.49633 3.66353 7.48684C3.1826 7.4765 2.25447 7.21431 1.56471 6.99029C0.720956 6.71544 0.0480652 6.5701 0.107128 6.1033C0.136659 5.8603 0.47205 5.6116 1.11119 5.35742Z" fill="red"/>
</svg>
